<svg xmlns="http://www.w3.org/2000/svg" width="79" height="72" viewBox="0 0 79 72"><path d="M34.425,71.932,26.9,69.443a1.735,1.735,0,0,1-1.012-2.1L42.732,1.221A1.466,1.466,0,0,1,44.571.068L52.1,2.557a1.735,1.735,0,0,1,1.012,2.1L36.264,70.779A1.462,1.462,0,0,1,34.425,71.932ZM20.355,56.153l5.369-6.525a1.855,1.855,0,0,0-.1-2.419L14.442,36,25.625,24.791a1.84,1.84,0,0,0,.1-2.419l-5.369-6.525a1.359,1.359,0,0,0-2.1-.07L.47,34.763a1.84,1.84,0,0,0,0,2.461l17.786,19a1.35,1.35,0,0,0,2.1-.07Zm40.386.084,17.786-19a1.84,1.84,0,0,0,0-2.461L60.74,15.763a1.368,1.368,0,0,0-2.1.07l-5.369,6.525a1.855,1.855,0,0,0,.1,2.419S64.554,30.392,64.554,36,53.372,47.209,53.372,47.209a1.84,1.84,0,0,0-.1,2.419l5.369,6.525A1.359,1.359,0,0,0,60.74,56.238Z" transform="translate(0.002 -0.003)" fill="#fff"/></svg>