<svg xmlns="http://www.w3.org/2000/svg" width="91.276" height="82.602" viewBox="0 0 91.276 82.602"><g transform="translate(1.638 2.099)"><path d="M50.75,24.926,11.25,6.315" transform="translate(13 4.606)" fill="none" stroke="#5d38e0" stroke-linecap="round" stroke-linejoin="round" stroke-width="10"/><path d="M83.5,53.2V24.512a7.061,7.061,0,0,0-4.389-6.2L48.389,3.964a10.5,10.5,0,0,0-8.778,0L8.889,18.308a7.061,7.061,0,0,0-4.389,6.2V53.2a7.061,7.061,0,0,0,4.389,6.2L39.611,73.748a10.5,10.5,0,0,0,8.778,0L79.111,59.4A7.061,7.061,0,0,0,83.5,53.2Z" transform="translate(0 0)" fill="none" stroke="#5d38e0" stroke-linecap="round" stroke-linejoin="round" stroke-width="10"/><path d="M4.905,10.44,43.22,28.549,81.535,10.44" transform="translate(0.78 10.342)" fill="none" stroke="#5d38e0" stroke-linecap="round" stroke-linejoin="round" stroke-width="11"/><path d="M18,54.147V18" transform="translate(26 20.856)" fill="none" stroke="#5d38e0" stroke-linecap="round" stroke-linejoin="round" stroke-width="11"/></g></svg>