<svg xmlns="http://www.w3.org/2000/svg" width="131" height="65.62" viewBox="0 0 131 65.62"><path d="M41.678-81.98c20.532,0,33.355-11.5,33.355-31.31S62.21-144.6,41.678-144.6C21.223-144.6,8.4-133.1,8.4-113.29S21.223-81.98,41.678-81.98Zm.076-13.934c-10.991,0-17.555-6.128-17.555-17.376s6.564-17.376,17.555-17.376c10.915,0,17.479,6.128,17.479,17.376S52.67-95.914,41.755-95.914Zm38.087-35.423,8.472,8.982c5.648-6.128,12.365-9.485,19.692-9.485,5.877,0,11.6,2.015,11.6,5.96s-6.106,5.792-13.815,8.478c-15.876,5.2-25.34,14.774-26.714,26.106v7.387H136.4V-96.838h-39c1.756-3.022,8.93-6.547,17.708-9.569,11.754-3.945,20.227-9.737,20.227-19.81,0-12.675-13.739-18.215-26.638-18.215C96.023-144.432,85.337-138.808,79.842-131.337Z" transform="translate(-6.9 146.1)" fill="none" stroke="#fff" stroke-width="3"/></svg>