<svg xmlns="http://www.w3.org/2000/svg" width="131" height="65.625" viewBox="0 0 131 65.625"><path d="M50.456-81.976c25.947,0,42.152-11.5,42.152-31.312S76.4-144.6,50.456-144.6C24.605-144.6,8.4-133.1,8.4-113.288S24.605-81.976,50.456-81.976Zm.1-13.935c-13.89,0-22.185-6.128-22.185-17.377s8.3-17.377,22.185-17.377c13.794,0,22.089,6.128,22.089,17.377s-8.3,17.377-22.089,17.377Zm66.171,12H136.4v-58.763H121.546a55.354,55.354,0,0,1-24.983,10.158v13.6c7.427-1.091,14.565-2.854,20.16-6.044Z" transform="translate(-6.9 146.1)" fill="none" stroke="#fff" stroke-width="3"/></svg>