<svg xmlns="http://www.w3.org/2000/svg" width="131" height="65.62" viewBox="0 0 131 65.62"><path d="M41.52-81.98c20.434,0,33.2-11.5,33.2-31.31S61.955-144.6,41.52-144.6c-20.358,0-33.12,11.5-33.12,31.31S21.162-81.98,41.52-81.98ZM41.6-95.914c-10.939,0-17.472-6.128-17.472-17.376s6.533-17.376,17.472-17.376c10.863,0,17.4,6.128,17.4,17.376S52.459-95.914,41.6-95.914ZM88.315-103.3,77.755-95.662c6.077,8.226,16.636,13.515,29.55,13.515,16.256,0,29.094-6.38,29.094-18.131,0-8.646-7.065-12.759-14.585-14.1,7.52-1.007,12.534-6.715,12.534-13.6,0-11.416-13.294-16.452-27.423-16.452-12.458,0-22.561,5.12-28.259,13.095l10.027,7.89c3.95-5.12,9.8-8.31,17.7-8.31,5.773,0,12.154,1.343,12.154,5.96,0,4.449-6.077,5.876-12.382,5.876H97.734v11.416h8.432c7.445,0,13.9.923,13.9,6.463,0,5.456-6.837,7.219-13.37,7.219C98.722-94.823,92.493-97.929,88.315-103.3Z" transform="translate(-6.9 146.1)" fill="none" stroke="#fff" stroke-width="3"/></svg>